<?xml version="1.0" standalone="no"?>
<!DOCTYPE svg PUBLIC "-//W3C//DTD SVG 20010904//EN"
 "http://www.w3.org/TR/2001/REC-SVG-20010904/DTD/svg10.dtd">
<svg version="1.0" xmlns="http://www.w3.org/2000/svg"
 width="260.000000pt" height="260.000000pt" viewBox="0 0 260.000000 260.000000"
 preserveAspectRatio="xMidYMid meet">
<metadata>
Created by potrace 1.11, written by Peter Selinger 2001-2013
</metadata>
<g transform="translate(0.000000,260.000000) scale(0.100000,-0.100000)"
fill="#000000" stroke="none">
<path d="M1160 2533 c-341 -51 -593 -185 -813 -433 -119 -133 -234 -355 -272
-520 -2 -8 -9 -35 -15 -60 -18 -72 -21 -381 -4 -475 44 -244 154 -467 323
-655 75 -83 116 -110 230 -145 124 -40 230 -34 328 17 47 25 63 52 63 106 -1
92 -68 214 -183 335 -115 121 -141 154 -187 239 -117 217 -124 472 -20 702
109 243 355 426 620 463 64 9 210 9 260 0 19 -4 49 -9 65 -12 87 -16 207 -68
298 -130 184 -124 323 -337 364 -555 2 -14 8 -41 12 -60 11 -48 6 -211 -8
-288 -28 -149 -89 -290 -177 -403 -80 -104 -212 -219 -307 -269 -16 -8 -24
-16 -18 -18 6 -2 42 13 79 33 237 130 400 343 474 619 17 64 22 111 22 221 1
142 -2 165 -29 268 -60 227 -233 457 -427 567 -32 17 -61 36 -64 41 -10 16
110 -53 166 -96 251 -193 391 -487 384 -808 -1 -67 -5 -131 -7 -142 -31 -127
-45 -171 -73 -238 -52 -124 -120 -224 -224 -328 -102 -104 -194 -169 -312
-224 -91 -42 -223 -81 -315 -93 -94 -13 -284 -7 -368 11 -68 15 -69 15 -48 -3
12 -9 20 -19 18 -21 -2 -2 11 -4 28 -5 18 0 66 -5 107 -11 41 -6 108 -10 148
-9 39 0 72 -2 72 -6 0 -11 -130 -9 -219 2 -93 12 -104 6 -17 -9 73 -13 232
-15 316 -5 157 19 353 89 487 176 92 60 113 77 204 168 132 133 232 305 283
486 35 125 41 177 40 339 -1 115 -6 157 -27 236 -92 351 -292 599 -609 756
-78 38 -91 52 -20 21 124 -54 282 -166 372 -264 153 -165 270 -419 296 -642
71 -592 -344 -1157 -938 -1278 -93 -19 -322 -27 -383 -14 -22 4 -61 11 -87 14
-26 4 -56 9 -65 12 -15 5 -15 4 -3 -4 34 -22 190 -45 315 -47 267 -4 528 81
739 240 150 112 296 293 367 452 17 38 37 83 45 101 9 18 16 42 17 52 1 11 5
20 9 20 4 0 8 -2 8 -4 0 -11 -27 -81 -56 -144 -19 -41 -34 -76 -34 -78 0 -11
-72 -119 -126 -189 -110 -142 -231 -243 -394 -328 -97 -51 -226 -99 -302 -112
-17 -3 -34 -8 -38 -10 -12 -8 -135 -18 -217 -19 -121 -1 -91 -12 39 -15 367
-7 749 197 980 524 144 202 222 453 222 710 -1 224 -36 370 -140 574 -35 70
-72 136 -82 147 -10 10 -25 30 -35 44 -52 76 -237 243 -319 289 -21 12 -55 31
-75 42 -101 58 -214 97 -388 135 -34 7 -316 13 -355 7z m184 -121 c3 -5 -1 -9
-9 -9 -8 0 -12 4 -9 9 3 4 7 8 9 8 2 0 6 -4 9 -8z m70 -3 c3 -3 -8 -5 -23 -4
-16 0 -27 3 -25 7 5 8 40 6 48 -3z m43 -5 c-3 -3 -12 -4 -19 -1 -8 3 -5 6 6 6
11 1 17 -2 13 -5z m48 -4 c17 -8 16 -8 -7 -7 -16 1 -28 5 -28 9 0 10 9 9 35
-2z m100 -19 c89 -22 125 -34 125 -42 0 -11 -14 -12 -24 -2 -15 15 -147 50
-168 45 -5 -1 -8 3 -8 9 0 6 8 8 18 5 9 -3 35 -10 57 -15z m140 -241 c3 -5 1
-10 -4 -10 -6 0 -11 5 -11 10 0 6 2 10 4 10 3 0 8 -4 11 -10z m406 -187 c13
-16 12 -17 -3 -4 -10 7 -18 15 -18 17 0 8 8 3 21 -13z m30 -40 c13 -16 12 -17
-3 -4 -10 7 -18 15 -18 17 0 8 8 3 21 -13z m89 -143 c6 -11 8 -20 6 -20 -3 0
-10 9 -16 20 -6 11 -8 20 -6 20 3 0 10 -9 16 -20z m28 -55 c-3 -3 -9 2 -12 12
-6 14 -5 15 5 6 7 -7 10 -15 7 -18z m150 0 c-3 -3 -9 2 -12 12 -6 14 -5 15 5
6 7 -7 10 -15 7 -18z m-122 -60 c9 -39 0 -30 -15 15 -6 19 -7 30 -2 25 5 -6
13 -23 17 -40z m142 0 c-3 -3 -9 2 -12 12 -6 14 -5 15 5 6 7 -7 10 -15 7 -18z
m22 -60 c0 -5 -5 -3 -10 5 -5 8 -10 20 -10 25 0 6 5 3 10 -5 5 -8 10 -19 10
-25z m-137 -5 c3 -11 2 -18 -3 -15 -4 3 -10 14 -13 25 -3 11 -2 18 3 15 4 -3
10 -14 13 -25z m144 -52 c-3 -8 -6 -5 -6 6 -1 11 2 17 5 13 3 -3 4 -12 1 -19z
m-111 -94 c3 -21 3 -36 0 -33 -3 3 -8 23 -12 45 -3 21 -3 36 0 33 3 -3 8 -23
12 -45z m130 21 c1 -8 -1 -17 -5 -19 -4 -3 -7 6 -7 19 0 25 8 25 12 0z m-119
-92 c1 -24 0 -25 -6 -8 -7 17 -6 35 2 35 2 0 3 -12 4 -27z m130 -63 c2 -11 -1
-20 -5 -20 -4 0 -8 11 -8 25 0 28 8 24 13 -5z m-122 -41 c-6 -32 -12 -34 -12
-4 0 14 3 25 8 25 4 0 6 -10 4 -21z m120 -14 c-1 -14 -5 -28 -8 -31 -3 -4 -4
7 -2 22 4 35 4 34 9 34 2 0 3 -11 1 -25z m-4 -89 c-5 -12 -7 -29 -6 -38 2 -10
0 -20 -5 -23 -4 -3 -6 12 -3 33 3 20 4 46 4 57 0 15 2 17 9 6 4 -8 5 -24 1
-35z m-124 -21 c-1 -19 -5 -35 -9 -35 -5 0 -6 10 -4 23 3 12 5 28 5 35 1 6 3
12 5 12 3 0 4 -16 3 -35z m113 -65 c0 -5 -5 -10 -11 -10 -5 0 -7 5 -4 10 3 6
8 10 11 10 2 0 4 -4 4 -10z m-126 -37 c-9 -38 -23 -73 -28 -73 -2 0 2 20 9 44
8 24 11 47 8 50 -4 3 -1 6 6 6 7 0 9 -9 5 -27z m108 -38 c-2 -14 -9 -28 -15
-32 -7 -4 -8 0 -4 11 4 10 7 24 7 32 0 8 4 14 9 14 4 0 6 -11 3 -25z m-132
-60 c0 -8 -4 -15 -10 -15 -5 0 -7 7 -4 15 4 8 8 15 10 15 2 0 4 -7 4 -15z
m-28 -75 c-9 -27 -19 -50 -23 -50 -5 0 -2 15 5 33 7 17 16 40 19 50 4 9 8 17
11 17 2 0 -3 -22 -12 -50z m-63 -137 c-23 -43 -48 -85 -57 -93 -8 -8 -1 10 17
40 17 30 39 72 47 93 9 20 20 37 25 37 5 0 -10 -35 -32 -77z m-104 -160 c-55
-70 -157 -166 -228 -217 -66 -46 -196 -120 -203 -114 -2 2 13 12 34 23 58 30
173 104 222 144 50 41 145 139 175 182 11 16 24 29 29 29 4 0 -9 -21 -29 -47z
m-480 -353 c-48 -21 -93 -35 -84 -26 8 9 100 44 114 44 6 0 -8 -8 -30 -18z
m-95 -29 c0 -8 -89 -29 -165 -38 -55 -7 -41 3 15 11 34 5 119 25 148 35 1 1 2
-3 2 -8z m-210 -41 c0 -5 -2 -10 -4 -10 -3 0 -8 5 -11 10 -3 6 -1 10 4 10 6 0
11 -4 11 -10z"/>
<path d="M1010 166 c0 -2 7 -7 16 -10 8 -3 12 -2 9 4 -6 10 -25 14 -25 6z"/>
</g>
</svg>
