<?xml version="1.0" standalone="no"?>
<!DOCTYPE svg PUBLIC "-//W3C//DTD SVG 20010904//EN"
 "http://www.w3.org/TR/2001/REC-SVG-20010904/DTD/svg10.dtd">
<svg version="1.0" xmlns="http://www.w3.org/2000/svg"
 width="192.000000pt" height="192.000000pt" viewBox="0 0 192.000000 192.000000"
 preserveAspectRatio="xMidYMid meet">
<metadata>
Created by potrace 1.11, written by Peter Selinger 2001-2013
</metadata>
<g transform="translate(0.000000,192.000000) scale(0.100000,-0.100000)"
fill="#000000" stroke="none">
<path d="M840 1884 c-237 -45 -398 -127 -545 -279 -297 -306 -350 -778 -129
-1147 27 -45 83 -116 124 -158 66 -67 83 -79 143 -98 92 -30 177 -29 244 2 61
29 73 55 54 124 -18 67 -55 124 -146 223 -87 94 -142 185 -170 281 -21 75 -22
224 -1 301 51 186 187 336 368 408 80 32 88 33 218 33 152 -1 211 -15 329 -81
79 -43 183 -146 229 -225 128 -219 120 -517 -21 -729 -46 -70 -149 -173 -205
-206 -24 -14 -41 -28 -38 -30 3 -3 25 6 49 20 242 142 384 431 348 707 -12 93
-49 204 -93 278 -43 72 -146 182 -209 222 -60 39 -64 50 -6 18 23 -13 78 -59
122 -103 90 -89 146 -184 186 -315 30 -98 33 -290 5 -389 -82 -299 -323 -520
-630 -578 -77 -15 -255 -14 -326 2 -18 4 -15 0 10 -12 25 -11 74 -18 165 -22
l130 -6 -95 -6 -95 -5 90 -2 c165 -3 352 53 492 149 164 112 288 289 343 489
35 126 34 311 -4 433 -48 161 -128 292 -238 392 -72 65 -189 137 -263 162 -27
9 -44 18 -37 21 23 7 215 -96 280 -151 381 -326 403 -897 47 -1252 -176 -175
-367 -253 -627 -256 -110 -2 -111 -2 -43 -10 140 -15 339 22 470 89 180 91
323 238 411 426 18 39 33 65 34 58 0 -21 -69 -153 -115 -217 -52 -74 -168
-184 -243 -232 -121 -78 -269 -127 -424 -142 l-83 -8 76 -2 c85 -1 227 30 319
71 361 161 583 547 540 937 -13 123 -38 208 -92 316 -66 130 -141 223 -259
317 -72 57 -226 133 -326 159 -76 20 -302 34 -363 23z m203 -91 c-23 -2 -64
-2 -90 0 -26 2 -7 3 42 3 50 0 71 -1 48 -3z m142 -18 c53 -17 34 -18 -35 0
-30 7 -44 13 -30 13 14 0 43 -5 65 -13z m140 -195 c3 -6 -1 -7 -9 -4 -18 7
-21 14 -7 14 6 0 13 -4 16 -10z m270 -130 c10 -11 16 -20 13 -20 -3 0 -13 9
-23 20 -10 11 -16 20 -13 20 3 0 13 -9 23 -20z m45 -61 c15 -28 5 -23 -15 7
-9 15 -12 23 -6 20 6 -4 16 -16 21 -27z m70 -134 c0 -5 -5 -3 -10 5 -5 8 -10
20 -10 25 0 6 5 3 10 -5 5 -8 10 -19 10 -25z m30 -70 c0 -5 -5 -3 -10 5 -5 8
-10 20 -10 25 0 6 5 3 10 -5 5 -8 10 -19 10 -25z m7 -47 c-3 -8 -6 -5 -6 6 -1
11 2 17 5 13 3 -3 4 -12 1 -19z m100 -10 c-3 -7 -5 -2 -5 12 0 14 2 19 5 13 2
-7 2 -19 0 -25z m-90 -40 c-3 -7 -5 -2 -5 12 0 14 2 19 5 13 2 -7 2 -19 0 -25z
m100 -15 c-3 -10 -5 -4 -5 12 0 17 2 24 5 18 2 -7 2 -21 0 -30z m-90 -70 c-3
-10 -5 -2 -5 17 0 19 2 27 5 18 2 -10 2 -26 0 -35z m10 -65 c-3 -7 -5 -2 -5
12 0 14 2 19 5 13 2 -7 2 -19 0 -25z m-10 -90 c-2 -13 -4 -5 -4 17 -1 22 1 32
4 23 2 -10 2 -28 0 -40z m90 -5 c-3 -10 -5 -2 -5 17 0 19 2 27 5 18 2 -10 2
-26 0 -35z m-17 -85 c-7 -29 -17 -60 -22 -68 -8 -13 -9 -13 -5 0 2 8 10 41 17
73 7 31 15 55 18 53 2 -3 -1 -29 -8 -58z m-85 2 c-9 -41 -17 -33 -9 9 4 17 9
30 11 27 3 -2 2 -19 -2 -36z m-43 -129 c-74 -176 -221 -334 -394 -422 -32 -16
-61 -29 -65 -29 -4 0 24 17 63 38 38 21 93 54 121 75 117 85 235 243 278 371
11 32 21 53 23 47 2 -5 -10 -41 -26 -80z m-482 -461 c-8 -5 -22 -10 -30 -10
-13 0 -13 1 0 10 8 5 22 10 30 10 13 0 13 -1 0 -10z m-85 -25 c-22 -8 -51 -13
-65 -13 -14 0 -3 5 25 13 65 17 91 17 40 0z"/>
<path d="M798 103 c7 -3 16 -2 19 1 4 3 -2 6 -13 5 -11 0 -14 -3 -6 -6z"/>
</g>
</svg>
